<svg width="12" height="13" viewBox="0 0 12 13" fill="none" xmlns="http://www.w3.org/2000/svg">
<g clip-path="url(#clip0_3571_49638)">
<path fill-rule="evenodd" clip-rule="evenodd" d="M11.1316 9.41992C10.7828 9.41992 10.5 9.13715 10.5 8.78834V2.5515C10.5 2.20269 10.2172 1.91992 9.86842 1.91992H3.63158C3.28277 1.91992 3 1.63715 3 1.28834V1.0515C3 0.702689 3.28277 0.419922 3.63158 0.419922H11.3684C11.7172 0.419922 12 0.702689 12 1.0515V8.78834C12 9.13715 11.7172 9.41992 11.3684 9.41992H11.1316ZM0 4.0515C0 3.70269 0.282768 3.41992 0.631579 3.41992H8.36842C8.71723 3.41992 9 3.70269 9 4.0515V11.7883C9 12.1372 8.71723 12.4199 8.36842 12.4199H0.631579C0.282767 12.4199 0 12.1372 0 11.7883V4.0515ZM2.13158 4.91992C1.78277 4.91992 1.5 5.20269 1.5 5.5515V10.2883C1.5 10.6372 1.78277 10.9199 2.13158 10.9199H6.86842C7.21723 10.9199 7.5 10.6372 7.5 10.2883V5.5515C7.5 5.20269 7.21723 4.91992 6.86842 4.91992H2.13158Z" fill="white"/>
</g>
<defs>
<clipPath id="clip0_3571_49638">
<rect width="12" height="12" fill="white" transform="translate(0 0.419922)"/>
</clipPath>
</defs>
</svg>
