<svg width="15" height="16" viewBox="0 0 15 16" fill="none" xmlns="http://www.w3.org/2000/svg">
<g opacity="0.6" clip-path="url(#clip0_3571_49613)">
<path d="M199 -120.832H-19V35.0013H199V-120.832Z" fill="#D9D9D9"/>
<path d="M16.1667 2.91992H1V4.13909H16.1667V2.91992Z" fill="#FE5858"/>
<path d="M16.1667 5.36719H1V6.58635H16.1667V5.36719Z" fill="#FE5858"/>
<path d="M16.1667 10.252H1V11.4711H16.1667V10.252Z" fill="#FE5858"/>
<path d="M16.1667 12.7031H1V13.9223H16.1667V12.7031Z" fill="#FE5858"/>
<path d="M16.1667 7.80859H1V9.02776H16.1667V7.80859Z" fill="#FE5858"/>
<path d="M16.1667 4.13867H1V5.35784H16.1667V4.13867Z" fill="white"/>
<path d="M16.1667 6.58594H1V7.8051H16.1667V6.58594Z" fill="white"/>
<path d="M16.1667 11.4727H1V12.6918H16.1667V11.4727Z" fill="white"/>
<path d="M16.1667 9.0332H1V10.2524H16.1667V9.0332Z" fill="white"/>
<path d="M9.16667 2.91992H1V9.03409H9.16667V2.91992Z" fill="#255FA0"/>
<path d="M2.57813 3.28516L2.84646 3.73432L3.45313 3.80766L3.00979 4.16516L3.11479 4.66016L2.57813 4.42182L2.04146 4.66016L2.14646 4.16516L1.70312 3.80766L2.30979 3.73432L2.57813 3.28516Z" fill="white"/>
<path d="M4.96875 3.28516L5.23708 3.73432L5.84375 3.80766L5.41208 4.16516L5.50542 4.66016L4.96875 4.42182L4.43208 4.66016L4.52542 4.16516L4.09375 3.80766L4.70042 3.73432L4.96875 3.28516Z" fill="white"/>
<path d="M7.35938 3.28516L7.62771 3.73432L8.23438 3.80766L7.79104 4.16516L7.89604 4.66016L7.35938 4.42182L6.82271 4.66016L6.92771 4.16516L6.48438 3.80766L7.09104 3.73432L7.35938 3.28516Z" fill="white"/>
<path d="M3.79688 5.11914L4.06521 5.56831L4.67188 5.64164L4.24021 5.99914L4.33354 6.49414L3.79688 6.25581L3.26021 6.49414L3.35354 5.99914L2.92188 5.64164L3.52854 5.56831L3.79688 5.11914Z" fill="white"/>
<path d="M6.1875 5.11914L6.45583 5.56831L7.0625 5.64164L6.61917 5.99914L6.72417 6.49414L6.1875 6.25581L5.65083 6.49414L5.75583 5.99914L5.3125 5.64164L5.91917 5.56831L6.1875 5.11914Z" fill="white"/>
<path d="M2.57813 7.0625L2.84646 7.51167L3.45313 7.585L3.00979 7.93333L3.11479 8.4375L2.57813 8.19917L2.04146 8.4375L2.14646 7.93333L1.70312 7.585L2.30979 7.51167L2.57813 7.0625Z" fill="white"/>
<path d="M4.96875 7.0625L5.23708 7.51167L5.84375 7.585L5.41208 7.93333L5.50542 8.4375L4.96875 8.19917L4.43208 8.4375L4.52542 7.93333L4.09375 7.585L4.70042 7.51167L4.96875 7.0625Z" fill="white"/>
<path d="M7.35938 7.0625L7.62771 7.51167L8.23438 7.585L7.79104 7.93333L7.89604 8.4375L7.35938 8.19917L6.82271 8.4375L6.92771 7.93333L6.48438 7.585L7.09104 7.51167L7.35938 7.0625Z" fill="white"/>
</g>
<defs>
<clipPath id="clip0_3571_49613">
<rect width="13" height="11" fill="white" transform="translate(1 2.91992)"/>
</clipPath>
</defs>
</svg>
