<svg width="32" height="33" viewBox="0 0 32 33" fill="none" xmlns="http://www.w3.org/2000/svg">
<g clip-path="url(#clip0_3441_74019)">
<circle cx="16.5" cy="17.209" r="13.5" stroke="white" stroke-width="2"/>
<path d="M17.9781 20.029H15.2963C15.3033 19.398 15.3524 18.8546 15.4435 18.3989C15.5417 17.9361 15.7064 17.519 15.9378 17.1474C16.1762 16.7758 16.4917 16.4077 16.8843 16.0431C17.2138 15.7486 17.5013 15.4682 17.7467 15.2018C17.9921 14.9353 18.1849 14.6619 18.3251 14.3815C18.4653 14.094 18.5355 13.775 18.5355 13.4244C18.5355 13.0178 18.4724 12.6812 18.3462 12.4148C18.227 12.1414 18.0447 11.9345 17.7993 11.7943C17.5609 11.6541 17.2594 11.584 16.8948 11.584C16.5933 11.584 16.3129 11.6506 16.0535 11.7838C15.7941 11.91 15.5802 12.1063 15.412 12.3727C15.2507 12.6392 15.1666 12.9897 15.1596 13.4244H12.1097C12.1307 12.4639 12.3516 11.6716 12.7722 11.0476C13.1999 10.4166 13.7713 9.95037 14.4865 9.64889C15.2016 9.34039 16.0044 9.18615 16.8948 9.18615C17.8764 9.18615 18.7177 9.34741 19.4189 9.66992C20.12 9.98543 20.6564 10.4517 21.0279 11.0687C21.3995 11.6786 21.5853 12.4218 21.5853 13.2982C21.5853 13.9082 21.4661 14.4516 21.2278 14.9283C20.9894 15.3981 20.6774 15.8363 20.2918 16.2429C19.9061 16.6496 19.482 17.0703 19.0192 17.505C18.6196 17.8625 18.3462 18.2376 18.1989 18.6303C18.0587 19.0229 17.9851 19.4891 17.9781 20.029ZM14.9808 23.2787C14.9808 22.83 15.135 22.4584 15.4435 22.1639C15.752 21.8624 16.1657 21.7117 16.6845 21.7117C17.1963 21.7117 17.6065 21.8624 17.915 22.1639C18.2305 22.4584 18.3882 22.83 18.3882 23.2787C18.3882 23.7134 18.2305 24.0815 17.915 24.383C17.6065 24.6844 17.1963 24.8352 16.6845 24.8352C16.1657 24.8352 15.752 24.6844 15.4435 24.383C15.135 24.0815 14.9808 23.7134 14.9808 23.2787Z" fill="white"/>
</g>
<defs>
<clipPath id="clip0_3441_74019">
<rect width="32" height="32" fill="white" transform="translate(0 0.708984)"/>
</clipPath>
</defs>
</svg>
