<svg width="20" height="20" viewBox="0 0 20 20" fill="none" xmlns="http://www.w3.org/2000/svg">
<g clip-path="url(#clip0_3441_74039)">
<path d="M15.0232 13.8469L18.5924 17.4152L17.4132 18.5943L13.8449 15.0252C12.5172 16.0895 10.8657 16.6684 9.16406 16.666C5.02406 16.666 1.66406 13.306 1.66406 9.16602C1.66406 5.02602 5.02406 1.66602 9.16406 1.66602C13.3041 1.66602 16.6641 5.02602 16.6641 9.16602C16.6665 10.8677 16.0876 12.5191 15.0232 13.8469ZM13.3516 13.2285C14.4092 12.1409 14.9998 10.683 14.9974 9.16602C14.9974 5.94268 12.3866 3.33268 9.16406 3.33268C5.94073 3.33268 3.33073 5.94268 3.33073 9.16602C3.33073 12.3885 5.94073 14.9993 9.16406 14.9993C10.6811 15.0017 12.139 14.4111 13.2266 13.3535L13.3516 13.2285Z" fill="#F5F5FF"/>
</g>
<defs>
<clipPath id="clip0_3441_74039">
<rect width="20" height="20" fill="white"/>
</clipPath>
</defs>
</svg>
