<svg width="32" height="33" viewBox="0 0 32 33" fill="none" xmlns="http://www.w3.org/2000/svg">
<path d="M16.5703 20.709C18.7795 20.709 20.5703 18.9181 20.5703 16.709C20.5703 14.4998 18.7795 12.709 16.5703 12.709C14.3612 12.709 12.5703 14.4998 12.5703 16.709C12.5703 18.9181 14.3612 20.709 16.5703 20.709Z" stroke="white" stroke-width="2"/>
<path d="M18.9242 3.57767C18.4349 3.375 17.8136 3.375 16.5709 3.375C15.3282 3.375 14.7069 3.375 14.2176 3.57767C13.8938 3.71168 13.5996 3.90819 13.3519 4.15596C13.1041 4.40373 12.9076 4.69791 12.7736 5.02167C12.6509 5.319 12.6016 5.667 12.5829 6.17233C12.5746 6.53765 12.4736 6.89487 12.2893 7.21043C12.1051 7.52599 11.8436 7.78954 11.5296 7.97633C11.2108 8.15506 10.8518 8.2498 10.4863 8.25167C10.1208 8.25353 9.76086 8.16246 9.44025 7.987C8.99225 7.74967 8.66825 7.619 8.34691 7.57633C7.64601 7.48416 6.93718 7.67408 6.37625 8.10433C5.95758 8.42833 5.64558 8.96567 5.02425 10.0417C4.40291 11.1177 4.09091 11.655 4.02291 12.1817C3.97709 12.5289 4.00014 12.8818 4.09074 13.2202C4.18133 13.5586 4.3377 13.8758 4.55091 14.1537C4.74825 14.4097 5.02425 14.6243 5.45225 14.8937C6.08291 15.2897 6.48825 15.9643 6.48825 16.7083C6.48825 17.4523 6.08291 18.127 5.45225 18.5217C5.02425 18.7923 4.74691 19.007 4.55091 19.263C4.3377 19.5409 4.18133 19.8581 4.09074 20.1965C4.00014 20.5348 3.97709 20.8877 4.02291 21.235C4.09225 21.7603 4.40291 22.299 5.02291 23.375C5.64558 24.451 5.95625 24.9883 6.37625 25.3123C6.65416 25.5255 6.97136 25.6819 7.30972 25.7725C7.64808 25.8631 8.00098 25.8862 8.34825 25.8403C8.66825 25.7977 8.99225 25.667 9.44025 25.4297C9.76086 25.2542 10.1208 25.1631 10.4863 25.165C10.8518 25.1669 11.2108 25.2616 11.5296 25.4403C12.1736 25.8137 12.5562 26.5003 12.5829 27.2443C12.6016 27.751 12.6496 28.0977 12.7736 28.395C12.9076 28.7188 13.1041 29.0129 13.3519 29.2607C13.5996 29.5085 13.8938 29.705 14.2176 29.839C14.7069 30.0417 15.3282 30.0417 16.5709 30.0417C17.8136 30.0417 18.4349 30.0417 18.9242 29.839C19.248 29.705 19.5422 29.5085 19.7899 29.2607C20.0377 29.0129 20.2342 28.7188 20.3682 28.395C20.4909 28.0977 20.5402 27.751 20.5589 27.2443C20.5856 26.5003 20.9682 25.8123 21.6122 25.4403C21.931 25.2616 22.2901 25.1669 22.6555 25.165C23.021 25.1631 23.381 25.2542 23.7016 25.4297C24.1496 25.667 24.4736 25.7977 24.7936 25.8403C25.1408 25.8862 25.4937 25.8631 25.8321 25.7725C26.1705 25.6819 26.4877 25.5255 26.7656 25.3123C27.1856 24.9897 27.4962 24.451 28.1176 23.375C28.7389 22.299 29.0509 21.7617 29.1189 21.235C29.1647 20.8877 29.1417 20.5348 29.0511 20.1965C28.9605 19.8581 28.8041 19.5409 28.5909 19.263C28.3936 19.007 28.1176 18.7923 27.6896 18.523C27.3772 18.3331 27.1183 18.067 26.937 17.7496C26.7558 17.4321 26.6583 17.0738 26.6536 16.7083C26.6536 15.9643 27.0589 15.2897 27.6896 14.895C28.1176 14.6243 28.3949 14.4097 28.5909 14.1537C28.8041 13.8758 28.9605 13.5586 29.0511 13.2202C29.1417 12.8818 29.1647 12.5289 29.1189 12.1817C29.0496 11.6563 28.7389 11.1177 28.1189 10.0417C27.4962 8.96567 27.1856 8.42833 26.7656 8.10433C26.4877 7.89112 26.1705 7.73475 25.8321 7.64416C25.4937 7.55356 25.1408 7.53051 24.7936 7.57633C24.4736 7.619 24.1496 7.74967 23.7002 7.987C23.3798 8.16222 23.0201 8.25316 22.6549 8.2513C22.2896 8.24943 21.9309 8.15482 21.6122 7.97633C21.2982 7.78954 21.0367 7.52599 20.8525 7.21043C20.6682 6.89487 20.5672 6.53765 20.5589 6.17233C20.5402 5.66567 20.4922 5.319 20.3682 5.02167C20.2342 4.69791 20.0377 4.40373 19.7899 4.15596C19.5422 3.90819 19.248 3.71168 18.9242 3.57767Z" stroke="white" stroke-width="2"/>
</svg>
