<svg width="17" height="17" viewBox="0 0 17 17" fill="none" xmlns="http://www.w3.org/2000/svg">
<path fill-rule="evenodd" clip-rule="evenodd" d="M7.62863 2.20413C7.87254 1.60388 8.70169 1.60388 8.9456 2.20413L10.2303 5.67619C10.3339 5.93135 10.577 6.09757 10.8466 6.09757H14.5274C15.1486 6.09757 15.4597 6.86778 15.0204 7.31824L11.9856 10.1204C11.8142 10.2963 11.7492 10.5536 11.8158 10.7927L12.8994 14.6821C13.0823 15.3388 12.3683 15.8734 11.8141 15.4945L8.65749 13.3364C8.43321 13.1831 8.14102 13.1831 7.91674 13.3364L4.76537 15.491C4.20945 15.871 3.49304 15.3347 3.67659 14.6759L4.75846 10.7927C4.82508 10.5536 4.76005 10.2963 4.58859 10.1204L1.56732 7.33209C1.12309 6.87651 1.43771 6.09757 2.06595 6.09757H5.72762C5.99717 6.09757 6.24028 5.93135 6.34395 5.67619L7.62863 2.20413Z" fill="#FFFC00"/>
</svg>
