<svg width="105" height="48" viewBox="0 0 105 48" fill="none" xmlns="http://www.w3.org/2000/svg">
<path d="M11.6953 37.4363H0C0 37.4363 0 25.5815 0 22.2122C0 18.843 3.3052 9.2343 15.509 9.2343C27.7129 9.2343 31.1452 18.4686 31.1452 22.8362C31.1452 27.2037 31.1452 37.3116 31.1452 37.3116H19.577C19.577 37.3116 19.577 25.4567 19.577 23.5849C19.577 21.7131 17.9244 20.2156 15.509 20.2156C13.0937 20.2156 11.5682 22.337 11.5682 23.5849C11.5682 24.8328 11.6953 37.4363 11.6953 37.4363Z" fill="white"/>
<path d="M63.1802 9.85824L46.9085 47.4194H35.3402L40.1709 36.1885L28.7298 9.85824H40.298L45.8915 22.5866L51.4849 9.85824H63.1802Z" fill="white"/>
<path d="M55.422 37.4363H66.9902L83.2619 0H71.5666L55.422 37.4363Z" fill="white"/>
<path d="M95.2115 26.0806C95.2115 26.0806 94.0674 27.9525 92.4148 28.202C90.1266 28.7012 88.6011 27.8277 88.6011 27.8277L104.873 19.3421C102.966 13.4771 97.4997 9.35908 90.8893 9.35908C82.8806 9.35908 76.3973 15.7233 76.3973 23.7097C76.3973 31.6961 82.8806 38.0603 91.0165 38.0603C97.6269 38.0603 103.22 33.6927 105 27.7029L95.2115 26.0806ZM88.6011 19.5917C91.2707 18.219 93.4318 19.5917 93.4318 19.5917L86.3129 23.3353C86.1858 23.2105 86.1858 20.7148 88.6011 19.5917Z" fill="white"/>
</svg>
